<mxfile host="app.diagrams.net" agent="Mozilla/5.0 (Windows NT 10.0; Win64; x64) AppleWebKit/537.36 (KHTML, like Gecko) Chrome/139.0.0.0 Safari/537.36 Edg/139.0.0.0" version="28.1.2">
  <diagram name="第 1 页" id="70fWCadMbF0a-M5VIF8h">
    <mxGraphModel dx="1418" dy="794" grid="0" gridSize="10" guides="1" tooltips="1" connect="1" arrows="1" fold="1" page="1" pageScale="1" pageWidth="827" pageHeight="1169" math="0" shadow="0">
      <root>
        <mxCell id="0" />
        <mxCell id="1" parent="0" />
        <mxCell id="RmLA0iMzVtfLR-fnyqDk-5" style="edgeStyle=orthogonalEdgeStyle;rounded=0;orthogonalLoop=1;jettySize=auto;html=1;" edge="1" parent="1" source="RmLA0iMzVtfLR-fnyqDk-1" target="RmLA0iMzVtfLR-fnyqDk-2">
          <mxGeometry relative="1" as="geometry" />
        </mxCell>
        <mxCell id="RmLA0iMzVtfLR-fnyqDk-1" value="&lt;font style=&quot;font-size: 16px;&quot;&gt;自建Prometheus&lt;/font&gt;" style="rounded=1;whiteSpace=wrap;html=1;" vertex="1" parent="1">
          <mxGeometry x="162" y="307" width="148" height="86" as="geometry" />
        </mxCell>
        <mxCell id="RmLA0iMzVtfLR-fnyqDk-7" style="rounded=0;orthogonalLoop=1;jettySize=auto;html=1;" edge="1" parent="1" source="RmLA0iMzVtfLR-fnyqDk-2" target="RmLA0iMzVtfLR-fnyqDk-3">
          <mxGeometry relative="1" as="geometry" />
        </mxCell>
        <mxCell id="RmLA0iMzVtfLR-fnyqDk-2" value="&lt;font style=&quot;font-size: 16px;&quot;&gt;阿里云-可观测Prometheus&lt;/font&gt;" style="rounded=1;whiteSpace=wrap;html=1;" vertex="1" parent="1">
          <mxGeometry x="452" y="309.5" width="171" height="81" as="geometry" />
        </mxCell>
        <mxCell id="RmLA0iMzVtfLR-fnyqDk-3" value="&lt;font style=&quot;font-size: 16px;&quot;&gt;钉钉群、短信、电话&lt;/font&gt;" style="rounded=1;whiteSpace=wrap;html=1;" vertex="1" parent="1">
          <mxGeometry x="376" y="484" width="167" height="56" as="geometry" />
        </mxCell>
        <mxCell id="RmLA0iMzVtfLR-fnyqDk-6" value="remove wirte" style="text;html=1;align=center;verticalAlign=middle;resizable=0;points=[];autosize=1;strokeColor=none;fillColor=none;" vertex="1" parent="1">
          <mxGeometry x="345" y="323" width="87" height="26" as="geometry" />
        </mxCell>
        <mxCell id="RmLA0iMzVtfLR-fnyqDk-8" value="告警" style="text;html=1;align=center;verticalAlign=middle;resizable=0;points=[];autosize=1;strokeColor=none;fillColor=none;" vertex="1" parent="1">
          <mxGeometry x="499" y="424" width="42" height="26" as="geometry" />
        </mxCell>
        <mxCell id="RmLA0iMzVtfLR-fnyqDk-11" style="rounded=0;orthogonalLoop=1;jettySize=auto;html=1;" edge="1" parent="1" source="RmLA0iMzVtfLR-fnyqDk-9" target="RmLA0iMzVtfLR-fnyqDk-2">
          <mxGeometry relative="1" as="geometry" />
        </mxCell>
        <mxCell id="RmLA0iMzVtfLR-fnyqDk-9" value="告警配置" style="ellipse;whiteSpace=wrap;html=1;" vertex="1" parent="1">
          <mxGeometry x="714" y="255" width="82" height="81" as="geometry" />
        </mxCell>
        <mxCell id="RmLA0iMzVtfLR-fnyqDk-13" style="rounded=0;orthogonalLoop=1;jettySize=auto;html=1;" edge="1" parent="1" source="RmLA0iMzVtfLR-fnyqDk-12" target="RmLA0iMzVtfLR-fnyqDk-2">
          <mxGeometry relative="1" as="geometry" />
        </mxCell>
        <mxCell id="RmLA0iMzVtfLR-fnyqDk-12" value="grafana" style="ellipse;whiteSpace=wrap;html=1;" vertex="1" parent="1">
          <mxGeometry x="716" y="374" width="82" height="81" as="geometry" />
        </mxCell>
      </root>
    </mxGraphModel>
  </diagram>
</mxfile>
